HIERARCHY
ROOT Hips
{
 OFFSET 0.000000 0.000000 0.000000
 CHANNELS 6 Xposition Yposition Zposition Yrotation Xrotation Zrotation
 JOINT Chest
 {
  OFFSET 0.000000 9.581000 -0.001100
  CHANNELS 3 Yrotation Xrotation Zrotation
  JOINT Chest2
  {
   OFFSET 0.000000 9.561100 0.002200
   CHANNELS 3 Yrotation Xrotation Zrotation
   JOINT Chest3
   {
    OFFSET 0.000000 9.521100 0.000000
    CHANNELS 3 Yrotation Xrotation Zrotation
    JOINT Chest4
    {
     OFFSET 0.000000 9.511400 0.000000
     CHANNELS 3 Yrotation Xrotation Zrotation
     JOINT Neck
     {
      OFFSET 0.000000 14.375100 0.000000
      CHANNELS 3 Yrotation Xrotation Zrotation
      JOINT Head
      {
       OFFSET 0.000000 8.901200 0.004600
       CHANNELS 3 Yrotation Xrotation Zrotation
       End Site
       {
        OFFSET 0.000000 16.962200 0.002400
       }
      }
     }
     JOINT RightCollar
     {
      OFFSET -2.920100 9.518800 0.000000
      CHANNELS 3 Yrotation Xrotation Zrotation
      JOINT RightShoulder
      {
       OFFSET -13.664500 0.000000 0.000000
       CHANNELS 3 Yrotation Xrotation Zrotation
       JOINT RightElbow
       {
        OFFSET 0.000000 -29.999200 0.000000
        CHANNELS 3 Yrotation Xrotation Zrotation
        JOINT RightWrist
        {
         OFFSET 0.000000 -24.253600 0.000000
         CHANNELS 3 Yrotation Xrotation Zrotation
         End Site
         {
          OFFSET 0.000000 -17.918900 0.000000
         }
        }
       }
      }
     }
     JOINT LeftCollar
     {
      OFFSET 2.920100 9.518800 0.000000
      CHANNELS 3 Yrotation Xrotation Zrotation
      JOINT LeftShoulder
      {
       OFFSET 13.664500 0.000000 0.000000
       CHANNELS 3 Yrotation Xrotation Zrotation
       JOINT LeftElbow
       {
        OFFSET 0.000000 -29.999200 0.000000
        CHANNELS 3 Yrotation Xrotation Zrotation
        JOINT LeftWrist
        {
         OFFSET 0.000000 -24.253600 0.000000
         CHANNELS 3 Yrotation Xrotation Zrotation
         End Site
         {
          OFFSET 0.000000 -17.918900 0.000000
         }
        }
       }
      }
     }
    }
   }
  }
 }
 JOINT RightHip
 {
  OFFSET -7.797300 0.005300 0.000500
  CHANNELS 3 Yrotation Xrotation Zrotation
  JOINT RightKnee
  {
   OFFSET 0.000000 -40.663400 -0.000500
   CHANNELS 3 Yrotation Xrotation Zrotation
   JOINT RightAnkle
   {
    OFFSET 0.000000 -39.523700 -0.000900
    CHANNELS 3 Yrotation Xrotation Zrotation
    JOINT RightToe
    {
     OFFSET 0.000000 -6.418000 14.485300
     CHANNELS 3 Yrotation Xrotation Zrotation
     End Site
     {
      OFFSET 0.000000 -1.465200 6.326400
     }
    }
   }
  }
 }
 JOINT LeftHip
 {
  OFFSET 7.797300 0.005300 0.000500
  CHANNELS 3 Yrotation Xrotation Zrotation
  JOINT LeftKnee
  {
   OFFSET 0.000000 -40.663400 -0.000500
   CHANNELS 3 Yrotation Xrotation Zrotation
   JOINT LeftAnkle
   {
    OFFSET 0.000000 -39.523700 -0.000900
    CHANNELS 3 Yrotation Xrotation Zrotation
    JOINT LeftToe
    {
     OFFSET 0.000000 -6.418000 14.485300
     CHANNELS 3 Yrotation Xrotation Zrotation
     End Site
     {
      OFFSET 0.000000 -1.465200 6.326400
     }
    }
   }
  }
 }
}
MOTION
Frames: 6
Frame Time: 0.008333
0.000000 86.422400 0.000000 0.000000 -5.767877 0.000000 0.000000 11.653817 0.000000 0.000000 -5.885947 0.000000 0.000000 -0.000000 0.000000 0.000000 -0.000000 0.000000 0.000000 12.528835 0.000000 0.000000 0.711642 0.000000 0.000000 -0.000000 0.000000 0.000000 0.000000 -90.000000 0.000000 -2.309062 0.000000 0.000000 2.309062 0.000000 0.000000 -0.000000 0.000000 0.000000 -0.000000 90.000000 0.000000 -2.309062 0.000000 0.000000 2.309062 0.000000 0.000000 8.520406 0.000000 0.000000 1.905762 0.000000 -0.000000 -4.658285 0.000000 0.000000 -0.000000 0.000000 0.000000 8.520406 0.000000 0.000000 1.905762 0.000000 -0.000000 -4.658285 0.000000 0.000000 -0.000000 0.000000
-13.215337 126.911538 31.419278 -160.225029 -49.905725 -2.590758 -4.193059 26.913577 -0.515973 -0.686197 4.660043 0.053803 -1.086905 7.380681 0.058593 -3.336398 21.953340 -0.255144 -1.452435 13.044806 -4.412601 -0.511741 -11.967504 -4.369465 1.185033 1.064091 0.751668 4.734778 -7.650288 -6.499646 -81.801739 -64.725142 132.737630 5.030618 9.269926 -25.558166 -11.086391 -2.488288 -1.486116 -10.682335 -10.266883 11.873144 51.560789 -49.357287 -102.535106 6.540862 -13.280155 28.413692 -6.392487 -23.257854 -11.369203 -13.648448 78.810567 -15.309157 10.126329 -15.734797 3.837312 0.000776 -0.005993 0.000344 4.027859 5.297892 -2.411563 128.900564 64.853868 146.924380 10.537126 10.660588 3.909349 0.005247 -0.004496 0.002325
-13.215542 126.911970 31.417805 -160.230071 -49.898329 -2.593453 -4.194142 26.919863 -0.510112 -0.682995 4.653668 0.053893 -1.092859 7.386949 0.061068 -3.344795 21.951726 -0.253422 -1.568919 12.993257 -4.421084 -0.631541 -12.018569 -4.353385 1.166744 1.135382 0.730306 4.756975 -7.707062 -6.515128 -81.710297 -64.651829 132.682249 4.956639 9.263052 -25.536016 -11.087287 -2.408638 -1.529908 -10.554085 -10.262868 11.885076 51.699679 -49.404719 -102.620575 6.568088 -12.838731 28.028094 -6.391276 -23.263973 -11.353767 -13.676424 78.806982 -15.332931 10.086790 -15.720646 3.841307 -0.001146 -0.006065 -0.000508 4.028396 5.294268 -2.410015 128.908426 64.852546 146.935235 10.595475 10.725230 3.734406 -0.000256 0.019998 -0.000114
-13.216239 126.911232 31.417368 -160.226828 -49.880000 -2.598334 -4.203105 26.914222 -0.508482 -0.685019 4.653368 0.055033 -1.095796 7.386113 0.061896 -3.353772 21.949876 -0.252054 -1.682197 12.948245 -4.426629 -0.751932 -12.061073 -4.332333 1.157753 1.189073 0.710360 4.767830 -7.757249 -6.528587 -81.581691 -64.582579 132.596704 4.888851 9.252054 -25.512943 -11.074603 -2.365036 -1.557163 -10.446238 -10.223336 11.876773 51.846030 -49.449918 -102.707547 6.588151 -12.417313 27.661523 -6.393359 -23.280732 -11.348906 -13.685594 78.804033 -15.344809 10.088109 -15.711112 3.850647 -0.002254 -0.006378 -0.000999 4.026181 5.279461 -2.411690 128.915134 64.852081 146.946702 10.607149 10.735258 3.692654 -0.000288 0.024276 -0.000128
-13.217569 126.909619 31.417830 -160.216854 -49.853739 -2.603451 -4.214828 26.893922 -0.510246 -0.690613 4.660031 0.054802 -1.098435 7.384270 0.062430 -3.373478 21.942639 -0.245208 -1.784195 12.913822 -4.437459 -0.875126 -12.090623 -4.307331 1.170946 1.224232 0.687339 4.756993 -7.766774 -6.553955 -81.479275 -64.508592 132.549770 4.829628 9.238770 -25.491115 -11.048300 -2.314711 -1.593915 -10.357624 -10.185807 11.875136 52.003369 -49.490803 -102.795682 6.605783 -12.012241 27.305134 -6.398784 -23.305772 -11.352836 -13.667344 78.799773 -15.326242 10.099945 -15.699371 3.855072 -0.000160 -0.006931 -0.000071 4.017676 5.262574 -2.422714 128.908828 64.848979 146.940582 10.542502 10.648458 3.874798 0.005509 -0.002689 0.002441
-13.218219 126.908765 31.417442 -160.216794 -49.833097 -2.606742 -4.216753 26.878215 -0.505202 -0.694934 4.662139 0.056230 -1.100606 7.380517 0.062925 -3.371644 21.933363 -0.244757 -1.903304 12.894894 -4.434123 -1.001538 -12.105654 -4.279278 1.171021 1.243127 0.679712 4.759396 -7.760611 -6.568392 -81.364089 -64.446293 132.465298 4.779016 9.224301 -25.472720 -11.040486 -2.251315 -1.618481 -10.284961 -10.151997 11.876400 52.162938 -49.528038 -102.883282 6.624880 -11.623452 26.963719 -6.401184 -23.326360 -11.353996 -13.645995 78.796198 -15.303036 10.115674 -15.677845 3.860495 0.001193 -0.006887 0.000529 4.015448 5.246008 -2.424971 128.908052 64.844059 146.939372 10.503186 10.599620 3.977582 0.009500 -0.019213 0.004208
